<?xml version="1.0" standalone="no"?>
<!DOCTYPE svg PUBLIC "-//W3C//DTD SVG 20010904//EN"
 "http://www.w3.org/TR/2001/REC-SVG-20010904/DTD/svg10.dtd">
<svg version="1.0" xmlns="http://www.w3.org/2000/svg"
 width="647.000000pt" height="647.000000pt" viewBox="0 0 647.000000 647.000000"
 preserveAspectRatio="xMidYMid meet">
<metadata>
Created by potrace 1.11, written by Peter Selinger 2001-2013
</metadata>
<g transform="translate(0.000000,647.000000) scale(0.100000,-0.100000)"
fill="#000000" stroke="none">
<path d="M5055 5850 c-204 -18 -476 -93 -677 -188 -57 -27 -189 -103 -293
-169 -263 -167 -308 -193 -453 -272 -340 -183 -677 -295 -968 -321 -153 -14
-260 -6 -469 35 -281 56 -396 69 -640 69 -231 0 -332 -9 -531 -49 -298 -60
-538 -176 -694 -335 -136 -139 -230 -362 -261 -617 -11 -88 -11 -117 4 -216
39 -260 136 -450 356 -696 120 -134 165 -203 187 -284 21 -78 17 -197 -11
-337 -42 -212 -31 -321 47 -457 75 -131 157 -209 249 -233 58 -16 245 -14 444
5 276 26 479 30 560 11 101 -24 189 -59 291 -117 163 -94 269 -176 609 -478
438 -388 605 -504 835 -582 180 -61 426 -49 619 30 203 82 327 229 396 466 52
179 60 294 57 810 -1 292 2 500 9 549 22 166 83 302 187 416 68 76 137 130
362 285 266 183 377 272 530 425 318 320 518 647 575 944 19 101 19 296 0 390
-43 208 -150 382 -363 587 -223 215 -398 299 -683 329 -110 11 -139 11 -274 0z
m-1315 -1539 c138 -13 189 -29 255 -79 56 -42 105 -127 130 -225 27 -110 40
-306 39 -627 -1 -537 -33 -712 -150 -820 -89 -82 -143 -92 -566 -110 -476 -19
-1285 -6 -1495 24 -301 44 -363 200 -363 908 0 540 33 726 149 831 87 78 147
93 431 106 244 12 1423 5 1570 -8z"/>
<path d="M2610 3415 c0 -253 3 -365 11 -365 10 0 656 346 672 360 8 7 -651
370 -672 370 -8 0 -11 -109 -11 -365z"/>
</g>
</svg>
